<mxfile host="Electron" modified="2024-10-01T11:44:29.572Z" agent="Mozilla/5.0 (Windows NT 10.0; Win64; x64) AppleWebKit/537.36 (KHTML, like Gecko) draw.io/21.7.5 Chrome/114.0.5735.289 Electron/25.8.1 Safari/537.36" etag="goWicKNSIhc43zvQZwyQ" version="21.7.5" type="device">
  <diagram name="PÃ¡gina-1" id="55tOowhAJpsEX9wiHGIf">
    <mxGraphModel dx="1116" dy="557" grid="1" gridSize="10" guides="1" tooltips="1" connect="1" arrows="1" fold="1" page="1" pageScale="1" pageWidth="827" pageHeight="1169" math="0" shadow="0">
      <root>
        <mxCell id="0" />
        <mxCell id="1" parent="0" />
        <mxCell id="7MAxy2JcQrM3nIe17G63-1" value="Paquete" style="rounded=0;whiteSpace=wrap;html=1;" vertex="1" parent="1">
          <mxGeometry x="120" y="80" width="80" height="40" as="geometry" />
        </mxCell>
        <mxCell id="7MAxy2JcQrM3nIe17G63-3" value="Camionero" style="rounded=0;whiteSpace=wrap;html=1;" vertex="1" parent="1">
          <mxGeometry x="390" y="80" width="80" height="40" as="geometry" />
        </mxCell>
        <mxCell id="7MAxy2JcQrM3nIe17G63-4" value="" style="endArrow=none;html=1;rounded=0;exitX=1;exitY=0.5;exitDx=0;exitDy=0;" edge="1" parent="1" source="7MAxy2JcQrM3nIe17G63-5" target="7MAxy2JcQrM3nIe17G63-3">
          <mxGeometry width="50" height="50" relative="1" as="geometry">
            <mxPoint x="390" y="250" as="sourcePoint" />
            <mxPoint x="440" y="200" as="targetPoint" />
          </mxGeometry>
        </mxCell>
        <mxCell id="7MAxy2JcQrM3nIe17G63-6" value="" style="endArrow=none;html=1;rounded=0;exitX=1;exitY=0.5;exitDx=0;exitDy=0;" edge="1" parent="1" source="7MAxy2JcQrM3nIe17G63-1" target="7MAxy2JcQrM3nIe17G63-5">
          <mxGeometry width="50" height="50" relative="1" as="geometry">
            <mxPoint x="200" y="100" as="sourcePoint" />
            <mxPoint x="360" y="100" as="targetPoint" />
          </mxGeometry>
        </mxCell>
        <mxCell id="7MAxy2JcQrM3nIe17G63-5" value="Transportar" style="rhombus;whiteSpace=wrap;html=1;" vertex="1" parent="1">
          <mxGeometry x="250" y="80" width="90" height="40" as="geometry" />
        </mxCell>
        <mxCell id="7MAxy2JcQrM3nIe17G63-7" value="#DNI" style="ellipse;whiteSpace=wrap;html=1;" vertex="1" parent="1">
          <mxGeometry x="350" y="20" width="50" height="40" as="geometry" />
        </mxCell>
        <mxCell id="7MAxy2JcQrM3nIe17G63-8" value="nombre" style="ellipse;whiteSpace=wrap;html=1;" vertex="1" parent="1">
          <mxGeometry x="413.5" y="20" width="46" height="40" as="geometry" />
        </mxCell>
        <mxCell id="7MAxy2JcQrM3nIe17G63-9" value="telefono" style="ellipse;whiteSpace=wrap;html=1;" vertex="1" parent="1">
          <mxGeometry x="480" y="20" width="50" height="40" as="geometry" />
        </mxCell>
        <mxCell id="7MAxy2JcQrM3nIe17G63-10" value="salario" style="ellipse;whiteSpace=wrap;html=1;" vertex="1" parent="1">
          <mxGeometry x="500" y="80" width="50" height="40" as="geometry" />
        </mxCell>
        <mxCell id="7MAxy2JcQrM3nIe17G63-11" value="poblacion" style="ellipse;whiteSpace=wrap;html=1;" vertex="1" parent="1">
          <mxGeometry x="475" y="140" width="60" height="40" as="geometry" />
        </mxCell>
        <mxCell id="7MAxy2JcQrM3nIe17G63-12" value="#codigo" style="ellipse;whiteSpace=wrap;html=1;" vertex="1" parent="1">
          <mxGeometry x="170" y="20" width="50" height="40" as="geometry" />
        </mxCell>
        <mxCell id="7MAxy2JcQrM3nIe17G63-13" value="descrip" style="ellipse;whiteSpace=wrap;html=1;" vertex="1" parent="1">
          <mxGeometry x="100" y="20" width="50" height="40" as="geometry" />
        </mxCell>
        <mxCell id="7MAxy2JcQrM3nIe17G63-15" value="destin" style="ellipse;whiteSpace=wrap;html=1;" vertex="1" parent="1">
          <mxGeometry x="50" y="60" width="50" height="40" as="geometry" />
        </mxCell>
        <mxCell id="7MAxy2JcQrM3nIe17G63-16" value="direccion" style="ellipse;whiteSpace=wrap;html=1;" vertex="1" parent="1">
          <mxGeometry x="50" y="120" width="50" height="40" as="geometry" />
        </mxCell>
        <mxCell id="7MAxy2JcQrM3nIe17G63-17" value="(0,1)" style="text;html=1;align=center;verticalAlign=middle;resizable=0;points=[];autosize=1;strokeColor=none;fillColor=none;" vertex="1" parent="1">
          <mxGeometry x="350" y="100" width="50" height="30" as="geometry" />
        </mxCell>
        <mxCell id="7MAxy2JcQrM3nIe17G63-19" value="(0,n)" style="text;html=1;align=center;verticalAlign=middle;resizable=0;points=[];autosize=1;strokeColor=none;fillColor=none;" vertex="1" parent="1">
          <mxGeometry x="190" y="100" width="50" height="30" as="geometry" />
        </mxCell>
        <mxCell id="7MAxy2JcQrM3nIe17G63-20" value="" style="endArrow=none;html=1;rounded=0;exitX=1;exitY=0.5;exitDx=0;exitDy=0;entryX=0;entryY=1;entryDx=0;entryDy=0;" edge="1" parent="1" source="7MAxy2JcQrM3nIe17G63-16" target="7MAxy2JcQrM3nIe17G63-1">
          <mxGeometry width="50" height="50" relative="1" as="geometry">
            <mxPoint x="180" y="110" as="sourcePoint" />
            <mxPoint x="230" y="60" as="targetPoint" />
          </mxGeometry>
        </mxCell>
        <mxCell id="7MAxy2JcQrM3nIe17G63-21" value="" style="endArrow=none;html=1;rounded=0;exitX=0;exitY=0.5;exitDx=0;exitDy=0;entryX=0.935;entryY=0.712;entryDx=0;entryDy=0;entryPerimeter=0;" edge="1" parent="1" source="7MAxy2JcQrM3nIe17G63-1" target="7MAxy2JcQrM3nIe17G63-15">
          <mxGeometry width="50" height="50" relative="1" as="geometry">
            <mxPoint x="90" y="110" as="sourcePoint" />
            <mxPoint x="110" y="90" as="targetPoint" />
          </mxGeometry>
        </mxCell>
        <mxCell id="7MAxy2JcQrM3nIe17G63-22" value="" style="endArrow=none;html=1;rounded=0;exitX=0.073;exitY=0.027;exitDx=0;exitDy=0;exitPerimeter=0;" edge="1" parent="1" source="7MAxy2JcQrM3nIe17G63-1" target="7MAxy2JcQrM3nIe17G63-13">
          <mxGeometry width="50" height="50" relative="1" as="geometry">
            <mxPoint x="160" y="100" as="sourcePoint" />
            <mxPoint x="210" y="50" as="targetPoint" />
          </mxGeometry>
        </mxCell>
        <mxCell id="7MAxy2JcQrM3nIe17G63-23" value="" style="endArrow=none;html=1;rounded=0;exitX=0.073;exitY=0.027;exitDx=0;exitDy=0;exitPerimeter=0;entryX=0.549;entryY=0.954;entryDx=0;entryDy=0;entryPerimeter=0;" edge="1" parent="1" target="7MAxy2JcQrM3nIe17G63-12">
          <mxGeometry width="50" height="50" relative="1" as="geometry">
            <mxPoint x="195.42000000000002" y="79.92" as="sourcePoint" />
            <mxPoint x="194.42000000000002" y="58.92" as="targetPoint" />
          </mxGeometry>
        </mxCell>
        <mxCell id="7MAxy2JcQrM3nIe17G63-24" value="" style="endArrow=none;html=1;rounded=0;exitX=0;exitY=0;exitDx=0;exitDy=0;" edge="1" parent="1" source="7MAxy2JcQrM3nIe17G63-3" target="7MAxy2JcQrM3nIe17G63-7">
          <mxGeometry width="50" height="50" relative="1" as="geometry">
            <mxPoint x="390" y="100" as="sourcePoint" />
            <mxPoint x="440" y="50" as="targetPoint" />
          </mxGeometry>
        </mxCell>
        <mxCell id="7MAxy2JcQrM3nIe17G63-25" value="" style="endArrow=none;html=1;rounded=0;exitX=0.625;exitY=0;exitDx=0;exitDy=0;exitPerimeter=0;" edge="1" parent="1" source="7MAxy2JcQrM3nIe17G63-3">
          <mxGeometry width="50" height="50" relative="1" as="geometry">
            <mxPoint x="390" y="100" as="sourcePoint" />
            <mxPoint x="440" y="60" as="targetPoint" />
            <Array as="points" />
          </mxGeometry>
        </mxCell>
        <mxCell id="7MAxy2JcQrM3nIe17G63-26" value="" style="endArrow=none;html=1;rounded=0;exitX=1;exitY=0;exitDx=0;exitDy=0;" edge="1" parent="1" source="7MAxy2JcQrM3nIe17G63-3" target="7MAxy2JcQrM3nIe17G63-9">
          <mxGeometry width="50" height="50" relative="1" as="geometry">
            <mxPoint x="390" y="100" as="sourcePoint" />
            <mxPoint x="440" y="50" as="targetPoint" />
          </mxGeometry>
        </mxCell>
        <mxCell id="7MAxy2JcQrM3nIe17G63-27" value="" style="endArrow=none;html=1;rounded=0;exitX=1;exitY=0.5;exitDx=0;exitDy=0;entryX=0;entryY=0.5;entryDx=0;entryDy=0;" edge="1" parent="1" source="7MAxy2JcQrM3nIe17G63-3" target="7MAxy2JcQrM3nIe17G63-10">
          <mxGeometry width="50" height="50" relative="1" as="geometry">
            <mxPoint x="390" y="100" as="sourcePoint" />
            <mxPoint x="440" y="50" as="targetPoint" />
          </mxGeometry>
        </mxCell>
        <mxCell id="7MAxy2JcQrM3nIe17G63-28" value="" style="endArrow=none;html=1;rounded=0;exitX=1;exitY=1;exitDx=0;exitDy=0;" edge="1" parent="1" source="7MAxy2JcQrM3nIe17G63-3" target="7MAxy2JcQrM3nIe17G63-11">
          <mxGeometry width="50" height="50" relative="1" as="geometry">
            <mxPoint x="390" y="100" as="sourcePoint" />
            <mxPoint x="440" y="50" as="targetPoint" />
          </mxGeometry>
        </mxCell>
        <mxCell id="7MAxy2JcQrM3nIe17G63-30" value="Provincia" style="rounded=0;whiteSpace=wrap;html=1;" vertex="1" parent="1">
          <mxGeometry x="120" y="240" width="80" height="40" as="geometry" />
        </mxCell>
        <mxCell id="7MAxy2JcQrM3nIe17G63-32" value="" style="endArrow=none;html=1;rounded=0;exitX=0.5;exitY=0;exitDx=0;exitDy=0;" edge="1" parent="1" source="7MAxy2JcQrM3nIe17G63-33" target="7MAxy2JcQrM3nIe17G63-1">
          <mxGeometry width="50" height="50" relative="1" as="geometry">
            <mxPoint x="280" y="130" as="sourcePoint" />
            <mxPoint x="330" y="80" as="targetPoint" />
          </mxGeometry>
        </mxCell>
        <mxCell id="7MAxy2JcQrM3nIe17G63-34" value="" style="endArrow=none;html=1;rounded=0;exitX=0.5;exitY=0;exitDx=0;exitDy=0;" edge="1" parent="1" source="7MAxy2JcQrM3nIe17G63-30" target="7MAxy2JcQrM3nIe17G63-33">
          <mxGeometry width="50" height="50" relative="1" as="geometry">
            <mxPoint x="160" y="240" as="sourcePoint" />
            <mxPoint x="160" y="120" as="targetPoint" />
          </mxGeometry>
        </mxCell>
        <mxCell id="7MAxy2JcQrM3nIe17G63-33" value="llegar" style="rhombus;whiteSpace=wrap;html=1;" vertex="1" parent="1">
          <mxGeometry x="115" y="160" width="90" height="40" as="geometry" />
        </mxCell>
        <mxCell id="7MAxy2JcQrM3nIe17G63-35" value="#cod" style="ellipse;whiteSpace=wrap;html=1;" vertex="1" parent="1">
          <mxGeometry x="65" y="290" width="50" height="40" as="geometry" />
        </mxCell>
        <mxCell id="7MAxy2JcQrM3nIe17G63-36" value="nombre" style="ellipse;whiteSpace=wrap;html=1;" vertex="1" parent="1">
          <mxGeometry x="204" y="290" width="46" height="40" as="geometry" />
        </mxCell>
        <mxCell id="7MAxy2JcQrM3nIe17G63-37" value="" style="endArrow=none;html=1;rounded=0;exitX=1;exitY=0;exitDx=0;exitDy=0;entryX=0;entryY=1;entryDx=0;entryDy=0;" edge="1" parent="1" source="7MAxy2JcQrM3nIe17G63-35" target="7MAxy2JcQrM3nIe17G63-30">
          <mxGeometry width="50" height="50" relative="1" as="geometry">
            <mxPoint x="280" y="130" as="sourcePoint" />
            <mxPoint x="330" y="80" as="targetPoint" />
          </mxGeometry>
        </mxCell>
        <mxCell id="7MAxy2JcQrM3nIe17G63-38" value="" style="endArrow=none;html=1;rounded=0;exitX=1;exitY=1;exitDx=0;exitDy=0;entryX=0;entryY=0;entryDx=0;entryDy=0;" edge="1" parent="1" source="7MAxy2JcQrM3nIe17G63-30" target="7MAxy2JcQrM3nIe17G63-36">
          <mxGeometry width="50" height="50" relative="1" as="geometry">
            <mxPoint x="280" y="130" as="sourcePoint" />
            <mxPoint x="330" y="80" as="targetPoint" />
          </mxGeometry>
        </mxCell>
        <mxCell id="7MAxy2JcQrM3nIe17G63-39" value="(0,1)" style="text;html=1;align=center;verticalAlign=middle;resizable=0;points=[];autosize=1;strokeColor=none;fillColor=none;" vertex="1" parent="1">
          <mxGeometry x="150" y="210" width="50" height="30" as="geometry" />
        </mxCell>
        <mxCell id="7MAxy2JcQrM3nIe17G63-40" value="(0,n)" style="text;html=1;align=center;verticalAlign=middle;resizable=0;points=[];autosize=1;strokeColor=none;fillColor=none;" vertex="1" parent="1">
          <mxGeometry x="150" y="120" width="50" height="30" as="geometry" />
        </mxCell>
        <mxCell id="7MAxy2JcQrM3nIe17G63-41" value="Camion" style="rounded=0;whiteSpace=wrap;html=1;" vertex="1" parent="1">
          <mxGeometry x="390" y="240" width="80" height="40" as="geometry" />
        </mxCell>
        <mxCell id="7MAxy2JcQrM3nIe17G63-42" value="" style="endArrow=none;html=1;rounded=0;exitX=0.5;exitY=0;exitDx=0;exitDy=0;" edge="1" parent="1" source="7MAxy2JcQrM3nIe17G63-51">
          <mxGeometry width="50" height="50" relative="1" as="geometry">
            <mxPoint x="380" y="130" as="sourcePoint" />
            <mxPoint x="430" y="120" as="targetPoint" />
          </mxGeometry>
        </mxCell>
        <mxCell id="7MAxy2JcQrM3nIe17G63-43" value="#matricula" style="ellipse;whiteSpace=wrap;html=1;" vertex="1" parent="1">
          <mxGeometry x="459.5" y="310" width="60" height="40" as="geometry" />
        </mxCell>
        <mxCell id="7MAxy2JcQrM3nIe17G63-44" value="modelo" style="ellipse;whiteSpace=wrap;html=1;" vertex="1" parent="1">
          <mxGeometry x="354" y="310" width="60" height="40" as="geometry" />
        </mxCell>
        <mxCell id="7MAxy2JcQrM3nIe17G63-45" value="tipo" style="ellipse;whiteSpace=wrap;html=1;" vertex="1" parent="1">
          <mxGeometry x="510" y="240" width="60" height="40" as="geometry" />
        </mxCell>
        <mxCell id="7MAxy2JcQrM3nIe17G63-46" value="potencia" style="ellipse;whiteSpace=wrap;html=1;" vertex="1" parent="1">
          <mxGeometry x="300" y="240" width="60" height="40" as="geometry" />
        </mxCell>
        <mxCell id="7MAxy2JcQrM3nIe17G63-47" value="" style="endArrow=none;html=1;rounded=0;exitX=0;exitY=0.5;exitDx=0;exitDy=0;entryX=1;entryY=0.5;entryDx=0;entryDy=0;" edge="1" parent="1" source="7MAxy2JcQrM3nIe17G63-41" target="7MAxy2JcQrM3nIe17G63-46">
          <mxGeometry width="50" height="50" relative="1" as="geometry">
            <mxPoint x="380" y="130" as="sourcePoint" />
            <mxPoint x="430" y="80" as="targetPoint" />
          </mxGeometry>
        </mxCell>
        <mxCell id="7MAxy2JcQrM3nIe17G63-48" value="" style="endArrow=none;html=1;rounded=0;exitX=0.5;exitY=0;exitDx=0;exitDy=0;entryX=0.25;entryY=1;entryDx=0;entryDy=0;" edge="1" parent="1" source="7MAxy2JcQrM3nIe17G63-44" target="7MAxy2JcQrM3nIe17G63-41">
          <mxGeometry width="50" height="50" relative="1" as="geometry">
            <mxPoint x="380" y="130" as="sourcePoint" />
            <mxPoint x="430" y="80" as="targetPoint" />
          </mxGeometry>
        </mxCell>
        <mxCell id="7MAxy2JcQrM3nIe17G63-49" value="" style="endArrow=none;html=1;rounded=0;exitX=0.5;exitY=0;exitDx=0;exitDy=0;entryX=0.75;entryY=1;entryDx=0;entryDy=0;" edge="1" parent="1" source="7MAxy2JcQrM3nIe17G63-43" target="7MAxy2JcQrM3nIe17G63-41">
          <mxGeometry width="50" height="50" relative="1" as="geometry">
            <mxPoint x="380" y="130" as="sourcePoint" />
            <mxPoint x="430" y="80" as="targetPoint" />
          </mxGeometry>
        </mxCell>
        <mxCell id="7MAxy2JcQrM3nIe17G63-50" value="" style="endArrow=none;html=1;rounded=0;exitX=1;exitY=0.5;exitDx=0;exitDy=0;entryX=0;entryY=0.5;entryDx=0;entryDy=0;" edge="1" parent="1" source="7MAxy2JcQrM3nIe17G63-41" target="7MAxy2JcQrM3nIe17G63-45">
          <mxGeometry width="50" height="50" relative="1" as="geometry">
            <mxPoint x="380" y="130" as="sourcePoint" />
            <mxPoint x="430" y="80" as="targetPoint" />
          </mxGeometry>
        </mxCell>
        <mxCell id="7MAxy2JcQrM3nIe17G63-52" value="" style="endArrow=none;html=1;rounded=0;exitX=0.5;exitY=0;exitDx=0;exitDy=0;" edge="1" parent="1" source="7MAxy2JcQrM3nIe17G63-41" target="7MAxy2JcQrM3nIe17G63-51">
          <mxGeometry width="50" height="50" relative="1" as="geometry">
            <mxPoint x="430" y="240" as="sourcePoint" />
            <mxPoint x="430" y="120" as="targetPoint" />
          </mxGeometry>
        </mxCell>
        <mxCell id="7MAxy2JcQrM3nIe17G63-51" value="llevar" style="rhombus;whiteSpace=wrap;html=1;" vertex="1" parent="1">
          <mxGeometry x="385" y="160" width="90" height="40" as="geometry" />
        </mxCell>
        <mxCell id="7MAxy2JcQrM3nIe17G63-53" value="(0,n)" style="text;html=1;align=center;verticalAlign=middle;resizable=0;points=[];autosize=1;strokeColor=none;fillColor=none;" vertex="1" parent="1">
          <mxGeometry x="425" y="210" width="50" height="30" as="geometry" />
        </mxCell>
        <mxCell id="7MAxy2JcQrM3nIe17G63-54" value="(0,n)" style="text;html=1;align=center;verticalAlign=middle;resizable=0;points=[];autosize=1;strokeColor=none;fillColor=none;" vertex="1" parent="1">
          <mxGeometry x="420" y="120" width="50" height="30" as="geometry" />
        </mxCell>
        <mxCell id="7MAxy2JcQrM3nIe17G63-55" value="fecha" style="ellipse;whiteSpace=wrap;html=1;" vertex="1" parent="1">
          <mxGeometry x="294" y="160" width="60" height="40" as="geometry" />
        </mxCell>
        <mxCell id="7MAxy2JcQrM3nIe17G63-56" value="" style="endArrow=none;html=1;rounded=0;exitX=1;exitY=0.5;exitDx=0;exitDy=0;entryX=0;entryY=0.5;entryDx=0;entryDy=0;" edge="1" parent="1" source="7MAxy2JcQrM3nIe17G63-55" target="7MAxy2JcQrM3nIe17G63-51">
          <mxGeometry width="50" height="50" relative="1" as="geometry">
            <mxPoint x="380" y="130" as="sourcePoint" />
            <mxPoint x="430" y="80" as="targetPoint" />
          </mxGeometry>
        </mxCell>
      </root>
    </mxGraphModel>
  </diagram>
</mxfile>
